

@startuml

' hide the spot
' hide circle

' avoid problems with angled crows feet
skinparam linetype ortho
        
entity "pdl.ParameterDefinition" as pdl.ParameterDefinition {

    ID : BIGINT

---

    TOOLINTERFACE_ID : BIGINT
name : VARCHAR
description : VARCHAR
kind_mime : VARCHAR
kind_kind : VARCHAR
defaultValue_value : VARCHAR
defaultValue_value : INTEGER
defaultValue_value : DOUBLE
defaultValue_value : INTEGER
defaultValue_value : VARCHAR
defaultValue_value : VARCHAR
encoding : VARCHAR
semantics_ucd : VARCHAR
semantics_utype : VARCHAR

---
      TOOLINTERFACE_ID : BIGINT<<FK>>

}

entity "pdl.ParameterGroup" as pdl.ParameterGroup {

    ID : BIGINT

---

    TOOLINTERFACE_ID : BIGINT
name : VARCHAR

---
      TOOLINTERFACE_ID : BIGINT<<FK>>

}

entity "pdl.ParameterOrGroup" as pdl.ParameterOrGroup {

    ID : BIGINT

---

    PARAMETERGROUP_ID : BIGINT
param : BIGINT
group : BIGINT
required : INTEGER
minItems : INTEGER
maxItems : INTEGER

---
      param : BIGINT<<FK>>
group : BIGINT<<FK>>
PARAMETERGROUP_ID : BIGINT<<FK>>

}

entity "pdl.ToolInterface" as pdl.ToolInterface {

    ID : BIGINT

---

    input : BIGINT
output : BIGINT

---
      input : BIGINT<<FK>>
output : BIGINT<<FK>>

}


        pdl.ParameterDefinition }o--||pdl.ToolInterface
pdl.ParameterGroup }o--||pdl.ToolInterface
pdl.ParameterOrGroup }o--||pdl.ParameterDefinition
pdl.ParameterOrGroup }o--||pdl.ParameterGroup
pdl.ParameterOrGroup }o--||pdl.ParameterGroup
pdl.ToolInterface }o--||pdl.ParameterGroup
pdl.ToolInterface }o--||pdl.ParameterGroup



@enduml

    